<?xml version="1.0" standalone="no"?>
<!DOCTYPE svg PUBLIC "-//W3C//DTD SVG 20010904//EN"
 "http://www.w3.org/TR/2001/REC-SVG-20010904/DTD/svg10.dtd">
<svg version="1.0" xmlns="http://www.w3.org/2000/svg"
 width="353.000000pt" height="505.000000pt" viewBox="0 0 353.000000 505.000000"
 preserveAspectRatio="xMidYMid meet">

<g transform="translate(0.000000,505.000000) scale(0.100000,-0.100000)"
fill="#000000" stroke="none">
<path d="M1450 4985 c-115 -31 -157 -47 -275 -106 -159 -81 -238 -140 -402
-301 -174 -171 -311 -363 -434 -608 -160 -322 -253 -651 -310 -1100 -19 -146
-16 -616 5 -780 75 -596 275 -1109 583 -1497 279 -349 685 -594 983 -592 l95
1 -110 19 c-423 73 -779 326 -1065 759 -554 839 -635 2125 -193 3092 260 570
671 964 1130 1083 587 153 1180 -141 1583 -785 75 -119 190 -358 243 -503 81
-222 145 -496 179 -767 20 -160 17 -670 -5 -835 -52 -386 -143 -696 -297
-1010 -120 -244 -239 -416 -413 -594 -245 -249 -496 -386 -812 -441 l-100 -18
90 -1 c196 -2 460 111 692 298 358 286 639 760 788 1326 108 411 135 913 74
1370 -124 934 -630 1707 -1276 1950 -152 58 -204 65 -445 64 -200 0 -232 -3
-308 -24z"/>
<path d="M1670 4860 c0 -4 7 -11 16 -14 25 -9 10 -194 -18 -218 -25 -23 -19
-25 100 -33 71 -4 92 -3 92 7 0 7 3 24 6 38 l6 25 -19 -23 c-16 -19 -27 -23
-64 -20 l-44 3 -3 48 -3 47 35 0 c24 0 39 -6 49 -21 14 -19 15 -18 19 18 6 45
3 50 -16 34 -8 -7 -30 -11 -48 -9 -32 3 -33 4 -29 48 1 25 4 46 5 47 1 1 21
-1 45 -4 31 -4 45 -11 48 -24 8 -29 23 -22 23 10 0 27 -3 30 -42 35 -96 12
-158 14 -158 6z"/>
<path d="M1513 4838 c-37 -12 -42 -23 -15 -30 12 -4 24 -25 35 -68 10 -34 16
-64 15 -65 -2 -2 -44 21 -94 52 l-92 54 -38 -17 c-32 -14 -35 -18 -18 -21 17
-3 26 -22 49 -103 22 -81 25 -103 15 -115 -15 -18 -4 -19 39 -4 32 11 42 29
17 29 -8 0 -18 5 -21 10 -11 17 -45 143 -40 148 2 2 49 -23 105 -57 98 -59
137 -74 128 -48 -3 6 -18 59 -34 116 -21 77 -25 106 -16 109 13 4 17 23 5 21
-5 -1 -23 -6 -40 -11z"/>
<path d="M1970 4842 c0 -4 5 -13 11 -19 17 -17 -48 -194 -73 -201 -27 -7 -22
-19 13 -31 44 -15 51 -14 37 8 -9 16 -7 33 12 90 14 39 28 71 31 71 4 0 10
-45 14 -100 4 -55 10 -102 14 -104 4 -3 35 31 70 75 35 44 65 79 67 77 4 -5
-31 -142 -40 -157 -4 -6 -14 -11 -23 -11 -25 0 -7 -12 44 -32 53 -20 60 -18
42 10 -10 15 -8 36 11 111 12 51 29 95 36 98 23 9 16 20 -18 32 -31 11 -35 10
-66 -26 -17 -21 -42 -53 -55 -70 -28 -42 -37 -41 -37 1 0 18 -3 61 -6 95 -7
59 -9 63 -42 76 -40 17 -42 18 -42 7z"/>
<path d="M1193 4697 c-47 -23 -53 -32 -25 -39 12 -4 30 -33 50 -84 35 -87 38
-104 20 -122 -19 -19 5 -15 57 10 47 23 58 38 26 38 -14 0 -27 21 -55 92 -23
60 -32 96 -26 102 12 12 13 26 3 25 -5 0 -27 -10 -50 -22z"/>
<path d="M1036 4597 l-29 -23 22 -94 c12 -51 20 -94 19 -96 -2 -1 -35 18 -75
42 l-72 45 -30 -22 c-35 -26 -39 -39 -13 -39 27 0 116 -154 108 -186 l-7 -25
36 28 c40 32 44 44 14 40 -17 -1 -31 12 -61 62 -21 35 -38 65 -36 67 2 2 41
-19 85 -45 45 -27 83 -47 86 -45 2 2 -6 50 -19 106 -13 56 -21 104 -20 106 2
2 25 -24 51 -58 37 -49 46 -66 41 -86 -7 -25 -5 -24 39 12 47 40 58 59 26 49
-25 -8 -136 134 -128 165 7 26 -1 25 -37 -3z"/>
<path d="M2496 4546 c8 -34 -92 -179 -118 -173 -10 3 -18 2 -18 -3 0 -11 146
-140 159 -140 9 0 31 30 31 43 0 2 -10 2 -23 0 -25 -5 -87 39 -87 60 0 7 11
26 24 42 l24 30 26 -24 c15 -14 26 -36 26 -50 1 -25 1 -26 16 -6 9 11 20 29
26 39 8 16 7 18 -6 13 -9 -4 -28 4 -46 19 -31 27 -31 33 3 79 14 19 15 19 52
-9 29 -22 36 -34 32 -52 -5 -30 4 -31 22 -2 13 21 9 26 -60 90 -41 37 -77 67
-82 68 -4 0 -5 -11 -1 -24z"/>
<path d="M1665 4473 c-490 -68 -912 -645 -1044 -1430 -61 -362 -57 -789 10
-1143 97 -506 329 -952 612 -1176 192 -151 395 -217 599 -194 205 23 381 120
559 308 340 356 549 995 549 1670 -1 1002 -460 1850 -1060 1958 -72 13 -162
16 -225 7z m116 -393 c2 -36 0 -70 -4 -76 -4 -7 -1 -32 7 -56 9 -31 11 -71 6
-138 -4 -52 -5 -98 -3 -103 9 -15 21 3 16 23 -3 11 1 27 8 36 7 9 16 43 20 76
6 51 13 66 45 99 21 21 43 51 50 66 l12 28 1 -32 c1 -22 -9 -44 -34 -73 -30
-36 -35 -50 -34 -84 1 -23 -5 -55 -14 -73 -18 -34 -22 -79 -8 -87 9 -6 31 36
31 61 0 8 17 32 39 53 25 24 41 50 45 75 5 26 22 52 60 89 28 29 57 68 63 86
8 27 11 30 12 13 2 -38 -30 -102 -60 -124 -16 -11 -29 -26 -29 -33 0 -37 -35
-122 -64 -154 -35 -39 -61 -117 -31 -92 8 7 15 19 15 26 0 7 17 22 38 33 20
10 48 33 61 51 13 18 43 41 68 52 25 11 53 28 64 39 15 15 19 16 19 4 0 -8
-24 -31 -54 -51 -56 -37 -108 -94 -120 -132 -4 -12 -17 -27 -29 -34 -12 -6
-28 -20 -35 -30 -15 -20 -10 -22 -88 42 -7 5 -14 6 -18 3 -3 -3 -13 -2 -23 2
-27 11 -77 12 -90 2 -18 -13 -43 -1 -43 22 0 11 -4 23 -10 26 -5 3 -10 22 -10
41 0 20 -5 44 -11 55 -7 14 -7 29 2 52 10 27 9 38 -5 65 -18 34 -22 102 -6
102 6 0 10 -14 10 -32 0 -23 10 -42 32 -65 30 -31 31 -36 20 -65 -6 -17 -9
-35 -5 -41 3 -5 7 -32 8 -59 2 -32 9 -56 20 -67 16 -15 17 -14 10 24 -10 57
-10 76 6 112 10 26 10 38 0 71 -8 24 -11 52 -6 69 4 15 12 65 18 111 12 92 24
89 28 -8z m-291 -72 c0 -42 41 -109 75 -124 26 -10 36 -24 53 -72 12 -32 22
-69 22 -81 0 -13 9 -35 20 -49 18 -23 19 -27 5 -34 -8 -5 -19 -7 -24 -4 -17
11 -71 116 -71 139 0 13 -15 37 -36 58 -48 45 -64 79 -64 131 0 24 -9 62 -20
83 l-20 40 30 -33 c17 -18 30 -42 30 -54z m-21 -160 c23 -12 31 -24 31 -43 0
-18 15 -42 48 -75 61 -63 82 -88 82 -97 0 -5 -15 -22 -33 -40 l-33 -32 -30 19
c-16 11 -37 20 -47 20 -10 0 -27 15 -38 34 -15 26 -33 39 -70 51 -38 13 -56
26 -76 57 -17 24 -41 45 -64 55 -21 8 -45 26 -54 39 -17 26 -5 33 15 9 7 -8
28 -17 49 -20 56 -10 78 -22 93 -51 7 -15 24 -31 38 -35 26 -7 112 -62 163
-105 16 -13 32 -22 36 -19 3 4 -6 16 -22 27 -15 11 -27 26 -27 34 0 8 -13 27
-29 42 -16 15 -32 42 -36 60 -4 19 -24 50 -46 72 -45 45 -53 73 -10 38 16 -12
43 -31 60 -40z m871 -17 c-14 -27 -48 -50 -92 -62 -26 -7 -43 -19 -53 -39 -9
-17 -31 -36 -51 -45 -20 -8 -48 -27 -63 -42 -15 -16 -41 -36 -59 -45 -18 -9
-32 -22 -32 -29 0 -7 9 -6 25 5 13 9 34 16 45 16 12 0 31 5 43 12 12 7 45 15
72 19 28 4 73 10 100 13 l50 7 -40 -16 c-22 -9 -68 -25 -103 -35 -35 -10 -73
-27 -85 -38 -12 -11 -35 -22 -52 -24 -16 -3 -37 -8 -46 -12 -12 -5 -22 3 -38
34 l-21 41 42 44 c35 36 50 45 78 45 23 0 42 8 60 26 46 47 99 81 143 92 24 6
52 21 62 32 23 25 29 26 15 1z m-1032 -182 c21 -19 44 -29 65 -29 18 0 41 -7
51 -15 11 -8 32 -15 47 -15 15 0 31 -5 34 -11 4 -5 18 -15 32 -20 19 -7 23
-14 18 -27 -24 -56 -24 -108 0 -164 5 -13 0 -21 -22 -30 -15 -7 -39 -20 -52
-30 -14 -11 -41 -18 -67 -18 -36 0 -51 -6 -83 -35 -34 -31 -45 -35 -92 -35
-30 -1 -65 -7 -79 -15 -14 -8 -36 -14 -50 -14 -23 0 -22 1 8 14 18 8 45 24 59
35 14 11 38 20 54 20 17 0 42 12 62 30 19 17 43 30 53 30 11 0 35 9 55 19 20
11 55 24 77 31 23 6 42 16 42 21 0 7 -7 8 -17 4 -38 -16 -54 -17 -67 -6 -11 9
-27 9 -71 -3 -41 -10 -65 -12 -83 -5 -14 6 -38 9 -52 8 -57 -3 -65 2 -25 17
22 8 54 12 72 9 18 -3 42 -1 54 5 12 7 35 13 53 14 17 2 38 4 46 5 8 1 -7 11
-34 22 -40 16 -62 19 -115 14 -64 -6 -67 -6 -116 29 -34 25 -61 36 -85 36 -26
0 -31 3 -20 10 23 15 57 12 98 -9 31 -16 59 -19 169 -18 126 0 132 1 122 18
-5 11 -19 19 -30 19 -11 0 -22 7 -25 15 -4 9 -19 15 -38 15 -37 0 -49 7 -65
37 -6 13 -28 32 -49 43 l-37 21 35 -7 c19 -4 50 -19 68 -35z m537 -28 c78 -35
123 -116 111 -199 -26 -192 -287 -234 -367 -57 -74 162 94 330 256 256z m560
-94 l70 1 -50 -17 c-38 -14 -57 -15 -82 -8 -24 8 -40 7 -60 -2 -32 -15 -109
-29 -200 -38 -35 -3 -63 -10 -63 -15 0 -6 11 -7 25 -4 14 4 37 0 53 -7 15 -7
35 -12 44 -10 9 2 30 -3 47 -11 16 -9 44 -16 61 -16 32 0 96 -25 105 -41 3 -4
-9 -4 -27 2 -18 5 -54 9 -81 9 -26 0 -61 7 -78 15 -25 13 -36 14 -64 4 -26
-10 -40 -10 -59 -1 -14 6 -33 9 -41 6 -12 -5 -15 3 -15 40 0 25 0 49 0 54 -1
4 12 10 27 13 15 3 38 11 50 17 17 9 39 10 93 1 46 -7 75 -7 83 -1 17 14 49
20 72 14 11 -3 52 -5 90 -5z m-294 -177 c14 -10 52 -23 85 -30 74 -15 103 -30
130 -67 13 -17 39 -34 64 -42 23 -7 40 -15 37 -18 -12 -11 -113 20 -147 45
-19 14 -55 29 -80 33 -77 13 -144 31 -165 45 -22 16 -59 19 -50 4 3 -5 15 -10
25 -10 11 0 26 -10 35 -23 8 -13 38 -34 66 -46 40 -18 54 -32 66 -60 8 -20 29
-51 46 -68 25 -27 27 -33 13 -33 -18 0 -57 37 -89 84 -12 17 -27 26 -44 26
-23 0 -47 14 -113 70 -14 12 -31 25 -38 29 -11 6 -9 17 8 50 l22 41 52 -6 c28
-3 63 -14 77 -24z m-518 -44 c32 -42 33 -46 7 -76 -11 -13 -20 -28 -20 -34 1
-12 45 35 52 54 2 8 12 7 33 -4 32 -16 67 -29 75 -29 3 0 26 4 53 7 47 7 47 7
53 -24 8 -38 24 -49 24 -16 0 14 -4 28 -10 31 -18 11 -11 21 32 49 41 27 43
27 58 9 8 -10 27 -26 42 -36 15 -9 31 -30 35 -46 5 -19 29 -44 70 -74 55 -41
63 -51 78 -104 9 -32 29 -71 43 -87 l27 -28 -30 15 c-19 9 -42 36 -59 66 -15
28 -39 59 -53 69 -31 21 -152 141 -174 173 -10 13 -20 21 -25 16 -4 -4 2 -17
14 -30 12 -13 22 -32 22 -43 0 -11 6 -28 13 -39 7 -11 14 -31 15 -44 0 -13 8
-31 16 -40 9 -10 16 -36 16 -60 0 -23 5 -51 10 -62 18 -34 3 -20 -19 17 -12
19 -21 42 -21 51 0 9 -11 30 -24 48 -13 17 -32 49 -42 71 l-18 39 -4 -43 c-2
-29 2 -52 14 -70 13 -20 18 -53 20 -132 2 -58 6 -116 10 -130 4 -18 2 -22 -6
-14 -16 15 -42 131 -41 178 1 22 -7 51 -16 65 -22 33 -44 87 -49 126 -16 102
-28 100 -31 -5 -2 -53 -8 -88 -18 -103 -10 -14 -15 -45 -15 -87 0 -101 -16
-106 -25 -7 -4 59 -3 92 5 107 7 14 9 36 5 59 l-8 36 -18 -40 c-10 -22 -19
-55 -19 -73 0 -20 -10 -47 -26 -67 -16 -22 -28 -54 -34 -93 -7 -52 -27 -110
-34 -100 -1 1 1 44 4 95 6 72 13 101 33 136 23 38 25 52 20 96 -4 40 -2 59 13
86 18 34 15 53 -5 40 -6 -3 -11 -15 -11 -25 0 -10 -4 -21 -9 -25 -18 -11 -71
-96 -71 -114 0 -10 -11 -24 -25 -31 -14 -7 -34 -28 -45 -47 -10 -18 -25 -33
-32 -33 -9 0 -9 3 0 12 7 7 12 21 12 31 0 11 14 35 30 54 17 18 30 42 30 53 0
10 10 35 21 55 12 20 19 38 16 42 -8 7 -113 -102 -143 -148 -15 -24 -33 -38
-52 -42 -17 -3 -46 -20 -66 -38 -20 -17 -36 -28 -36 -24 0 20 28 50 75 81 30
19 60 44 66 57 6 12 26 40 44 62 17 22 35 52 38 67 4 15 21 36 37 48 17 12 30
28 30 37 0 12 -7 9 -25 -11 -13 -14 -32 -26 -43 -26 -10 0 -33 -16 -52 -35
-27 -27 -42 -35 -70 -35 -24 0 -43 -7 -54 -19 -10 -11 -31 -24 -48 -30 -30
-11 -30 -11 10 29 22 22 47 40 57 40 9 0 31 16 48 35 17 19 35 35 40 35 5 0
22 11 39 25 16 14 35 25 43 25 7 0 18 7 25 15 17 21 21 19 53 -19z m175 -1809
c2 -861 1 -938 -14 -944 -25 -9 -157 14 -237 42 -120 41 -221 109 -343 230
-328 325 -529 857 -570 1508 l-7 107 584 -2 584 -3 3 -938z m881 618 c40 -129
35 -219 -19 -324 -26 -52 -119 -152 -163 -176 -56 -30 -66 -18 -65 72 0 66 -5
89 -31 151 -38 88 -46 150 -29 217 15 60 40 69 84 32 l28 -24 66 70 c60 62 70
68 88 58 14 -7 28 -34 41 -76z m-439 -27 c11 -18 27 -66 36 -107 21 -92 13
-165 -25 -246 -48 -104 -181 -229 -225 -212 -13 5 -15 21 -14 84 1 65 -3 88
-24 135 -53 114 -60 235 -17 274 20 18 22 18 59 -4 l39 -22 63 65 c35 36 69
65 76 65 7 0 21 -15 32 -32z m129 -628 c18 -49 24 -87 25 -155 1 -84 -2 -96
-33 -160 -53 -109 -198 -242 -229 -210 -4 4 -7 43 -8 88 -1 67 -6 92 -28 139
-38 80 -51 170 -34 228 16 54 45 63 90 30 l28 -21 28 33 c50 60 97 98 117 96
15 -2 26 -21 44 -68z"/>
<path d="M1475 3510 c3 -5 12 -10 20 -10 8 0 17 5 20 10 4 6 -5 10 -20 10 -15
0 -24 -4 -20 -10z"/>
<path d="M1465 3450 c3 -5 17 -10 31 -10 14 0 22 4 19 10 -3 6 -17 10 -31 10
-14 0 -22 -4 -19 -10z"/>
<path d="M1721 3181 c-7 -12 -7 -22 -2 -26 5 -3 13 4 16 16 9 28 -1 36 -14 10z"/>
<path d="M1272 2228 c-15 -15 -16 -55 -1 -63 20 -13 30 -59 23 -117 -6 -51
-10 -61 -35 -73 -39 -21 -43 -9 -35 100 7 87 6 94 -13 104 -25 14 -48 5 -54
-21 -8 -28 2 -48 29 -59 22 -8 24 -14 24 -75 l0 -66 -32 6 c-51 10 -60 23 -53
77 4 26 4 57 0 67 -7 25 -33 36 -51 21 -21 -18 -17 -45 11 -67 15 -12 25 -30
25 -46 0 -27 -9 -31 -62 -27 l-27 2 32 -73 c18 -40 36 -79 41 -87 14 -22 117
-8 169 22 l44 26 26 -27 c22 -21 37 -27 89 -29 35 -2 69 0 76 5 7 4 21 41 32
80 22 80 24 96 11 88 -5 -3 -23 -3 -40 0 -27 6 -31 11 -31 40 0 24 5 34 15 34
9 0 21 11 27 25 10 21 9 29 -5 43 -14 13 -21 14 -35 5 -14 -9 -16 -23 -14 -75
3 -60 1 -66 -22 -82 -45 -29 -56 -22 -56 36 0 46 4 55 32 78 25 21 30 31 25
52 -8 32 -29 41 -55 22 -19 -13 -20 -21 -15 -109 6 -89 5 -95 -14 -95 -34 0
-43 21 -43 98 0 52 4 78 15 88 29 29 13 84 -25 84 -9 0 -21 -5 -28 -12z"/>
<path d="M1250 1768 c-45 -17 -63 -19 -102 -11 -27 5 -48 8 -48 7 0 -2 4 -14
9 -27 13 -34 77 -43 143 -21 41 13 57 14 97 4 49 -12 141 -5 141 10 0 5 3 16
7 25 5 15 0 17 -43 11 -33 -5 -66 -2 -99 8 -27 9 -50 15 -50 15 0 0 -25 -10
-55 -21z"/>
<path d="M1270 1669 c-14 -6 -51 -9 -83 -7 l-59 4 7 -32 c3 -18 35 -123 70
-233 36 -111 65 -208 65 -217 0 -12 -7 -10 -32 9 -18 13 -46 33 -62 43 l-29
18 7 -49 c11 -75 50 -148 111 -203 l54 -50 -13 -76 c-13 -73 -12 -76 5 -71 62
17 59 13 59 77 0 53 4 64 31 96 51 58 71 115 76 217 l4 90 -41 -43 c-23 -24
-43 -42 -45 -40 -5 5 45 319 64 395 l17 71 -60 -1 c-34 -1 -74 2 -91 6 -16 3
-41 2 -55 -4z"/>
<path d="M2557 2129 c-20 -17 -49 -50 -63 -75 -14 -24 -27 -44 -29 -44 -2 0
-20 17 -40 37 -32 32 -38 35 -46 20 -6 -9 -10 -45 -10 -81 -1 -51 6 -78 32
-137 28 -61 33 -87 34 -146 0 -84 4 -84 89 1 105 105 140 238 101 382 -10 35
-20 66 -24 69 -4 2 -24 -10 -44 -26z"/>
<path d="M2141 2054 c-17 -14 -45 -47 -62 -74 l-32 -50 -40 36 c-36 33 -41 35
-49 19 -19 -33 -4 -156 27 -225 24 -53 30 -79 30 -137 0 -65 2 -70 18 -62 42
23 127 122 157 183 27 55 32 77 33 138 0 71 -24 181 -42 193 -5 3 -23 -6 -40
-21z"/>
<path d="M2231 1445 c-23 -25 -47 -56 -53 -70 -15 -33 -25 -32 -65 7 -45 43
-55 28 -50 -72 3 -55 12 -91 33 -135 23 -48 28 -74 29 -132 0 -40 4 -73 8 -73
19 0 135 123 160 168 46 85 52 192 16 311 -7 22 -18 41 -24 41 -7 0 -31 -20
-54 -45z"/>
<path d="M2700 4345 c0 -24 -14 -44 -62 -93 -53 -51 -67 -60 -88 -55 -23 6
-22 3 15 -43 96 -121 137 -146 199 -120 53 23 71 51 71 115 0 60 -20 97 -99
186 l-35 40 -1 -30z m74 -82 c11 -14 21 -48 24 -74 4 -45 2 -51 -31 -84 -44
-44 -95 -48 -132 -10 -14 13 -25 30 -25 37 0 14 127 158 138 158 4 0 16 -12
26 -27z"/>
<path d="M729 4276 c-100 -68 -86 -247 21 -271 62 -14 145 54 157 129 20 126
-81 208 -178 142z m114 -66 c29 -31 37 -47 37 -77 0 -57 -23 -83 -71 -83 -32
0 -46 7 -79 40 -53 53 -58 108 -13 148 36 33 77 23 126 -28z"/>
<path d="M2910 4058 c0 -20 -12 -35 -52 -64 -29 -21 -61 -47 -70 -58 -47 -57
15 -196 87 -196 11 0 50 20 86 44 50 33 69 42 82 34 22 -12 21 -6 -5 45 l-22
42 -6 -30 c-6 -34 -98 -105 -136 -105 -31 0 -64 45 -64 86 0 30 7 39 61 79 60
44 89 55 89 34 0 -5 5 -7 10 -4 6 4 0 25 -17 53 -36 64 -43 71 -43 40z"/>
<path d="M579 4055 c-3 -5 -19 -32 -34 -58 l-27 -48 24 6 c18 5 33 0 52 -17
l26 -23 -30 -52 c-17 -29 -34 -53 -38 -53 -4 0 -19 11 -34 25 -18 16 -25 31
-21 45 9 35 -5 22 -37 -32 -35 -61 -37 -73 -12 -57 16 10 31 3 96 -45 61 -46
76 -61 71 -77 -12 -37 10 -18 38 32 28 51 30 72 4 50 -14 -11 -19 -8 -76 36
-6 5 52 113 61 113 3 0 20 -12 38 -26 21 -19 29 -32 25 -45 -12 -36 10 -19 38
30 32 58 33 61 7 54 -30 -8 -158 90 -162 125 -2 15 -6 23 -9 17z"/>
<path d="M2982 3696 c-63 -34 -80 -125 -40 -219 12 -29 22 -53 24 -55 1 -2 17
1 35 6 l34 9 -37 16 c-29 12 -39 24 -49 55 -21 72 33 142 111 142 65 0 103
-82 64 -138 -20 -29 -14 -36 18 -21 23 10 25 15 21 57 -12 113 -106 190 -181
148z"/>
<path d="M327 3478 c-21 -70 -22 -84 -2 -64 14 14 24 12 97 -19 46 -19 84 -35
85 -35 2 0 3 -10 3 -22 0 -32 14 -12 34 46 15 48 14 75 -3 47 -11 -17 -37 -11
-124 28 -50 22 -66 35 -69 53 -3 17 -8 8 -21 -34z"/>
<path d="M2975 3373 c3 -10 9 -30 12 -46 7 -33 23 -46 23 -18 0 17 6 21 34 21
31 0 34 -3 45 -42 10 -41 9 -44 -16 -67 -24 -21 -28 -22 -38 -7 -21 28 -24 18
-10 -36 7 -29 18 -88 25 -130 7 -43 17 -78 21 -78 5 0 9 7 9 15 0 17 30 35 59
35 30 0 26 -25 -12 -67 -40 -45 -49 -67 -41 -99 8 -30 20 -31 28 -1 3 12 19
36 36 52 l30 29 23 -22 c29 -27 51 -28 77 -2 25 25 26 72 4 169 -15 67 -34 95
-34 51 0 -20 -16 -26 -128 -51 -42 -10 -55 -10 -61 0 -19 30 4 64 91 138 57
49 87 81 83 90 -3 8 -5 20 -5 27 0 10 -32 15 -112 20 -81 5 -116 11 -124 21
-15 21 -28 19 -19 -2z m183 -52 l23 -6 -30 -29 c-17 -16 -33 -28 -35 -25 -2 2
-7 19 -11 37 -7 34 1 38 53 23z m122 -303 c0 -38 -25 -68 -57 -68 -18 0 -28 9
-39 35 -7 19 -14 37 -14 39 0 8 94 34 103 29 4 -2 7 -18 7 -35z"/>
<path d="M262 3238 c-31 -115 -32 -124 -15 -135 9 -7 23 -13 31 -13 13 0 12 3
-1 18 -18 20 -22 59 -8 81 14 23 175 -38 179 -68 5 -35 19 -24 31 27 7 26 15
56 18 67 6 20 5 20 -15 1 -21 -18 -23 -18 -103 10 -45 16 -83 34 -86 40 -8 21
16 64 36 64 29 0 35 17 8 24 -12 3 -27 6 -32 6 -6 0 -25 -55 -43 -122z"/>
<path d="M208 2984 c-2 -25 0 -48 4 -50 5 -3 8 2 8 10 0 24 14 27 87 17 77
-11 103 -33 103 -85 0 -51 -24 -76 -73 -76 -75 0 -119 12 -125 32 -9 37 -20
17 -24 -44 -4 -70 -1 -81 14 -54 9 16 19 18 88 12 73 -7 79 -6 106 17 24 21
28 33 32 90 4 63 3 68 -25 96 -25 24 -41 30 -98 36 -54 6 -69 11 -72 26 -9 33
-21 20 -25 -27z"/>
<path d="M3306 2814 c-6 -16 -19 -23 -53 -28 -83 -11 -135 -7 -150 12 -12 15
-13 1 -7 -98 4 -63 8 -118 11 -122 5 -9 53 -11 53 -3 0 3 -9 14 -20 25 -15 15
-20 33 -20 70 l0 50 39 0 c36 0 39 -2 44 -32 3 -20 -1 -42 -9 -55 -14 -22 -13
-23 21 -23 38 0 42 5 20 34 -8 11 -15 35 -15 53 0 34 0 34 43 31 l42 -3 3 -48
c2 -38 -1 -52 -15 -63 -17 -12 -16 -13 10 -14 26 0 27 1 26 58 -2 93 -15 181
-23 156z"/>
<path d="M390 2466 c0 -18 -17 -23 -107 -32 -52 -5 -77 -3 -88 6 -13 11 -15 6
-15 -34 0 -25 4 -46 9 -46 4 0 41 -15 82 -33 l73 -34 -77 -42 -77 -42 0 -45
c0 -24 5 -44 10 -44 6 0 10 7 10 15 0 12 17 15 89 15 82 0 91 -2 105 -22 15
-22 16 -21 16 25 0 26 -4 47 -10 47 -5 0 -10 -7 -10 -15 0 -12 -15 -15 -75
-15 -41 0 -75 2 -75 5 0 3 36 26 80 51 45 26 83 50 85 54 3 4 -36 24 -85 45
-50 21 -90 42 -90 46 0 5 17 9 38 9 20 0 53 3 73 6 30 5 37 3 46 -18 10 -20
12 -13 12 45 1 38 -3 67 -9 67 -5 0 -10 -6 -10 -14z"/>
<path d="M3144 2311 c-53 -32 -79 -130 -53 -198 15 -39 57 -81 89 -88 47 -10
98 18 120 67 38 83 18 181 -44 219 -39 24 -73 24 -112 0z m105 -52 c63 -22 77
-107 24 -149 -32 -25 -108 -27 -141 -4 -54 38 -47 124 12 150 38 16 64 17 105
3z"/>
<path d="M391 2083 l-24 -5 26 -21 c18 -16 28 -36 32 -68 l7 -46 -40 -10 c-37
-10 -41 -9 -46 11 -9 35 -7 71 7 85 10 11 6 12 -23 6 -48 -10 -57 -17 -33 -26
13 -5 22 -20 26 -45 7 -44 4 -49 -40 -59 -34 -7 -36 -5 -49 67 -5 30 -3 39 10
44 25 10 19 22 -9 16 -29 -5 -30 -9 -9 -121 19 -109 25 -124 33 -92 6 21 18
28 76 43 88 22 111 22 124 1 10 -16 10 -17 11 -1 0 9 -6 47 -14 85 -8 37 -17
85 -20 106 -4 20 -10 36 -14 36 -4 -1 -18 -4 -31 -6z"/>
<path d="M3056 1968 c-4 -24 -9 -54 -12 -68 -5 -24 -5 -24 10 -6 12 14 23 17
49 12 l35 -6 -5 -63 c-5 -57 -3 -64 21 -86 55 -52 105 1 126 133 11 72 8 90
-13 63 -11 -15 -17 -15 -77 -2 -84 19 -110 31 -110 50 0 33 -18 13 -24 -27z
m167 -89 c41 -11 47 -30 21 -67 -31 -45 -94 -15 -94 45 0 37 9 40 73 22z"/>
<path d="M376 1768 c-87 -30 -90 -30 -104 -12 -13 17 -14 15 -7 -21 9 -51 24
-80 25 -47 0 12 1 22 3 22 1 0 27 9 57 20 30 11 58 20 63 20 4 0 -16 -48 -46
-106 -51 -99 -54 -108 -45 -145 10 -38 27 -55 24 -23 -1 13 22 25 88 47 87 29
90 29 104 11 13 -17 14 -15 8 26 -8 48 -26 79 -26 43 0 -17 -13 -26 -75 -46
-41 -14 -75 -24 -75 -21 0 2 27 58 60 124 33 66 60 124 60 130 0 15 -15 12
-114 -22z"/>
<path d="M3044 1696 c-102 -45 -117 -233 -22 -282 63 -32 125 -5 159 70 10 23
19 56 19 75 0 52 -35 116 -74 135 -40 19 -42 19 -82 2z m73 -65 c48 -22 63
-45 63 -95 0 -64 -68 -94 -144 -62 -61 25 -84 86 -50 134 30 44 70 50 131 23z"/>
<path d="M560 1493 c0 -27 -11 -35 -99 -68 -68 -25 -75 -26 -86 -12 -22 31
-23 6 -2 -56 17 -51 22 -58 27 -38 4 18 22 30 75 52 77 31 111 36 118 17 2 -7
7 -11 10 -8 7 6 -25 115 -36 126 -4 4 -7 -2 -7 -13z"/>
<path d="M2891 1374 c-26 -68 -26 -67 -2 -52 15 9 25 8 51 -9 29 -19 30 -21
15 -37 -10 -9 -32 -16 -55 -16 -39 0 -61 -14 -81 -52 -13 -25 -6 -33 18 -20
10 5 37 12 61 15 38 5 42 3 42 -17 0 -57 67 -88 104 -47 20 22 76 155 76 179
0 13 -2 13 -13 -2 -13 -18 -18 -16 -98 25 -70 37 -84 48 -82 67 5 40 -14 23
-36 -34z m179 -142 c0 -40 -38 -69 -70 -52 -31 17 -41 44 -29 78 l11 31 44
-22 c24 -11 44 -27 44 -35z"/>
<path d="M604 1345 c7 -18 -8 -34 -90 -97 -45 -35 -64 -44 -72 -36 -22 22 -23
0 -1 -36 24 -41 18 -40 117 -22 39 7 72 11 72 8 0 -2 -21 -38 -46 -80 l-46
-75 18 -39 c9 -21 21 -38 27 -38 5 0 7 6 4 13 -8 21 2 30 80 76 50 30 78 41
92 36 26 -8 26 -5 -1 42 l-23 38 -5 -28 c-4 -20 -20 -36 -64 -63 -32 -19 -60
-34 -61 -32 -2 2 19 40 46 86 27 45 49 87 49 93 0 6 -11 8 -27 5 -60 -12 -157
-25 -161 -22 -2 2 24 25 58 51 50 39 63 45 76 34 8 -6 17 -10 19 -7 7 6 -48
108 -59 108 -4 0 -6 -7 -2 -15z"/>
<path d="M2745 1079 c-38 -59 -39 -65 -11 -64 26 0 155 -91 156 -110 0 -6 -7
-21 -16 -34 -12 -16 -23 -22 -40 -18 -13 2 -24 1 -24 -3 0 -13 54 -44 57 -33
2 6 31 54 63 107 33 53 60 100 60 104 0 4 -13 16 -27 26 -26 19 -26 19 -19 0
16 -38 16 -49 -3 -73 l-19 -24 -73 60 c-55 45 -73 65 -72 81 4 32 -3 27 -32
-19z"/>
<path d="M731 958 c-65 -35 -86 -116 -49 -188 70 -137 238 -109 238 40 0 104
-110 190 -189 148z m130 -47 c16 -16 29 -39 29 -51 0 -55 -59 -132 -112 -145
-39 -10 -78 31 -78 82 0 48 40 110 83 128 43 19 45 19 78 -14z"/>
<path d="M2587 855 c-37 -47 -67 -89 -67 -93 0 -5 10 -17 21 -28 22 -19 22
-19 16 7 -5 20 1 37 24 69 l31 42 33 -32 34 -33 -22 -28 c-12 -15 -32 -29 -45
-31 -23 -3 -23 -3 9 -33 30 -28 31 -29 26 -7 -4 15 3 32 20 53 l26 30 28 -27
c16 -15 29 -31 29 -36 0 -4 -14 -23 -30 -42 -23 -26 -36 -33 -53 -28 -22 5
-22 5 -3 -16 11 -12 22 -22 26 -22 9 0 130 155 130 165 0 4 -8 4 -17 1 -12 -5
-36 12 -85 61 -55 54 -66 71 -62 90 4 13 4 23 2 23 -3 0 -35 -38 -71 -85z"/>
<path d="M981 751 c10 -15 3 -30 -46 -100 -47 -65 -62 -80 -78 -75 -28 9 -18
-7 30 -50 l43 -38 -5 28 c-4 21 1 37 18 56 l23 28 47 -43 48 -42 -27 -33 c-19
-23 -31 -31 -45 -27 -29 9 -23 -1 22 -43 50 -45 65 -52 49 -23 -10 19 -4 32
46 102 43 62 61 80 75 76 29 -8 23 7 -21 47 -46 41 -54 44 -45 16 6 -20 -28
-90 -44 -90 -4 0 -26 19 -49 43 l-41 42 26 33 c17 23 32 32 44 29 30 -8 22 9
-23 47 -46 39 -65 46 -47 17z"/>
<path d="M2390 650 c-43 -37 -44 -39 -19 -40 20 0 37 -16 81 -77 l56 -78 -24
-25 c-21 -22 -27 -23 -45 -12 -31 19 -36 6 -9 -23 l23 -25 51 48 c28 26 68 61
89 79 20 18 37 36 37 40 0 4 -10 19 -21 33 l-20 25 6 -30 c4 -25 0 -36 -20
-55 -14 -13 -27 -22 -29 -19 -2 2 -29 39 -59 83 -46 64 -55 82 -46 97 15 30
-2 22 -51 -21z"/>
<path d="M1742 274 c-43 -30 -17 -104 36 -104 28 0 62 34 62 60 0 25 -34 60
-58 60 -10 0 -28 -7 -40 -16z"/>
</g>
</svg>
